<?xml version="1.0" encoding="UTF-8"?><svg xmlns="http://www.w3.org/2000/svg" xmlns:xlink="http://www.w3.org/1999/xlink" contentScriptType="text/ecmascript" width="375" zoomAndPan="magnify" contentStyleType="text/css" viewBox="0 0 375 374.999991" height="374.999991" preserveAspectRatio="xMidYMid meet" version="1.0"><path fill="rgb(49.409485%, 67.449951%, 41.178894%)" d="M 279.523438 217.039062 L 198.59375 199.234375 C 192.5 197.886719 182.5 197.886719 176.40625 199.234375 L 95.476562 217.039062 C 89.382812 218.382812 84.382812 224.597656 84.382812 230.855469 L 84.382812 249.628906 C 84.382812 256.011719 89.382812 262.355469 95.476562 263.738281 L 176.40625 281.964844 C 182.5 283.351562 192.5 283.351562 198.59375 281.964844 L 279.523438 263.738281 C 285.617188 262.355469 290.617188 256.011719 290.617188 249.628906 L 290.617188 230.855469 C 290.617188 224.597656 285.617188 218.382812 279.523438 217.039062 Z M 279.523438 217.039062 " fill-opacity="1" fill-rule="nonzero"/><path fill="rgb(100%, 84.309387%, 0%)" d="M 279.523438 163.914062 L 198.59375 146.105469 C 192.5 144.761719 182.5 144.761719 176.40625 146.105469 L 95.476562 163.914062 C 89.382812 165.257812 84.382812 171.472656 84.382812 177.730469 L 84.382812 196.503906 C 84.382812 202.886719 89.382812 209.226562 95.476562 210.613281 L 176.40625 228.839844 C 182.5 230.226562 192.5 230.226562 198.59375 228.839844 L 279.523438 210.613281 C 285.617188 209.226562 290.617188 202.886719 290.617188 196.503906 L 290.617188 177.730469 C 290.617188 171.472656 285.617188 165.257812 279.523438 163.914062 Z M 279.523438 163.914062 " fill-opacity="1" fill-rule="nonzero"/><path fill="rgb(80.778503%, 0%, 0%)" d="M 279.523438 109.5 L 198.59375 91.695312 C 192.5 90.351562 182.5 90.351562 176.40625 91.695312 L 95.476562 109.5 C 89.382812 110.84375 84.382812 117.058594 84.382812 123.316406 L 84.382812 142.089844 C 84.382812 148.472656 89.382812 154.816406 95.476562 156.199219 L 176.40625 174.425781 C 182.5 175.8125 192.5 175.8125 198.59375 174.425781 L 279.523438 156.199219 C 285.617188 154.816406 290.617188 148.472656 290.617188 142.089844 L 290.617188 123.316406 C 290.617188 117.058594 285.617188 110.84375 279.523438 109.5 Z M 279.523438 109.5 " fill-opacity="1" fill-rule="nonzero"/></svg>