<?xml version="1.0" encoding="UTF-8"?><svg xmlns="http://www.w3.org/2000/svg" xmlns:xlink="http://www.w3.org/1999/xlink" contentScriptType="text/ecmascript" width="375" zoomAndPan="magnify" contentStyleType="text/css" viewBox="0 0 375 374.999991" height="374.999991" preserveAspectRatio="xMidYMid meet" version="1.0"><path fill="rgb(35.688782%, 72.549438%, 92.158508%)" d="M 288.746094 105.730469 C 288.496094 105.730469 288.257812 105.683594 288.027344 105.589844 C 287.800781 105.492188 287.597656 105.359375 287.421875 105.183594 C 287.246094 105.007812 287.109375 104.804688 287.015625 104.574219 C 286.917969 104.34375 286.871094 104.105469 286.871094 103.855469 C 286.871094 103.609375 286.917969 103.371094 287.015625 103.140625 C 287.109375 102.910156 287.246094 102.707031 287.421875 102.53125 C 287.597656 102.355469 287.800781 102.21875 288.027344 102.125 C 288.257812 102.03125 288.496094 101.984375 288.746094 101.984375 C 288.996094 101.984375 289.234375 102.03125 289.464844 102.125 C 289.695312 102.21875 289.894531 102.355469 290.070312 102.53125 C 290.25 102.707031 290.382812 102.910156 290.480469 103.140625 C 290.574219 103.371094 290.621094 103.609375 290.621094 103.855469 C 290.621094 104.105469 290.574219 104.34375 290.480469 104.574219 C 290.382812 104.804688 290.25 105.007812 290.070312 105.183594 C 289.894531 105.359375 289.695312 105.492188 289.464844 105.589844 C 289.234375 105.683594 288.996094 105.730469 288.746094 105.730469 Z M 288.746094 113.230469 C 288.496094 113.230469 288.257812 113.183594 288.027344 113.085938 C 287.800781 112.992188 287.597656 112.855469 287.421875 112.679688 C 287.246094 112.503906 287.109375 112.300781 287.015625 112.074219 C 286.917969 111.84375 286.871094 111.605469 286.871094 111.355469 C 286.871094 111.105469 286.917969 110.867188 287.015625 110.636719 C 287.109375 110.410156 287.246094 110.207031 287.421875 110.03125 C 287.597656 109.855469 287.800781 109.71875 288.027344 109.625 C 288.257812 109.527344 288.496094 109.480469 288.746094 109.480469 C 288.996094 109.480469 289.234375 109.527344 289.464844 109.625 C 289.695312 109.71875 289.894531 109.855469 290.070312 110.03125 C 290.25 110.207031 290.382812 110.410156 290.480469 110.636719 C 290.574219 110.867188 290.621094 111.105469 290.621094 111.355469 C 290.621094 111.605469 290.574219 111.84375 290.480469 112.074219 C 290.382812 112.300781 290.25 112.503906 290.070312 112.679688 C 289.894531 112.855469 289.695312 112.992188 289.464844 113.085938 C 289.234375 113.183594 288.996094 113.230469 288.746094 113.230469 Z M 288.746094 120.726562 C 288.496094 120.726562 288.257812 120.679688 288.027344 120.585938 C 287.800781 120.492188 287.597656 120.355469 287.421875 120.179688 C 287.246094 120.003906 287.109375 119.800781 287.015625 119.570312 C 286.917969 119.339844 286.871094 119.101562 286.871094 118.855469 C 286.871094 118.605469 286.917969 118.367188 287.015625 118.136719 C 287.109375 117.90625 287.246094 117.703125 287.421875 117.527344 C 287.597656 117.351562 287.800781 117.21875 288.027344 117.121094 C 288.257812 117.027344 288.496094 116.980469 288.746094 116.980469 C 288.996094 116.980469 289.234375 117.027344 289.464844 117.121094 C 289.695312 117.21875 289.894531 117.351562 290.070312 117.527344 C 290.25 117.703125 290.382812 117.90625 290.480469 118.136719 C 290.574219 118.367188 290.621094 118.605469 290.621094 118.855469 C 290.621094 119.101562 290.574219 119.339844 290.480469 119.570312 C 290.382812 119.800781 290.25 120.003906 290.070312 120.179688 C 289.894531 120.355469 289.695312 120.492188 289.464844 120.585938 C 289.234375 120.679688 288.996094 120.726562 288.746094 120.726562 Z M 288.746094 128.226562 C 288.496094 128.226562 288.257812 128.179688 288.027344 128.082031 C 287.800781 127.988281 287.597656 127.851562 287.421875 127.675781 C 287.246094 127.5 287.109375 127.300781 287.015625 127.070312 C 286.917969 126.839844 286.871094 126.601562 286.871094 126.351562 C 286.871094 126.101562 286.917969 125.863281 287.015625 125.632812 C 287.109375 125.40625 287.246094 125.203125 287.421875 125.027344 C 287.597656 124.851562 287.800781 124.714844 288.027344 124.621094 C 288.257812 124.523438 288.496094 124.476562 288.746094 124.476562 C 288.996094 124.476562 289.234375 124.523438 289.464844 124.621094 C 289.695312 124.714844 289.894531 124.851562 290.070312 125.027344 C 290.25 125.203125 290.382812 125.40625 290.480469 125.632812 C 290.574219 125.863281 290.621094 126.101562 290.621094 126.351562 C 290.621094 126.601562 290.574219 126.839844 290.480469 127.070312 C 290.382812 127.300781 290.25 127.5 290.070312 127.675781 C 289.894531 127.851562 289.695312 127.988281 289.464844 128.082031 C 289.234375 128.179688 288.996094 128.226562 288.746094 128.226562 Z M 288.746094 135.726562 C 288.496094 135.726562 288.257812 135.675781 288.027344 135.582031 C 287.800781 135.488281 287.597656 135.351562 287.421875 135.175781 C 287.246094 135 287.109375 134.796875 287.015625 134.566406 C 286.917969 134.335938 286.871094 134.097656 286.871094 133.851562 C 286.871094 133.601562 286.917969 133.363281 287.015625 133.132812 C 287.109375 132.902344 287.246094 132.699219 287.421875 132.523438 C 287.597656 132.347656 287.800781 132.214844 288.027344 132.117188 C 288.257812 132.023438 288.496094 131.976562 288.746094 131.976562 C 288.996094 131.976562 289.234375 132.023438 289.464844 132.117188 C 289.695312 132.214844 289.894531 132.347656 290.070312 132.523438 C 290.25 132.699219 290.382812 132.902344 290.480469 133.132812 C 290.574219 133.363281 290.621094 133.601562 290.621094 133.851562 C 290.621094 134.097656 290.574219 134.335938 290.480469 134.566406 C 290.382812 134.796875 290.25 135 290.070312 135.175781 C 289.894531 135.351562 289.695312 135.488281 289.464844 135.582031 C 289.234375 135.675781 288.996094 135.726562 288.746094 135.726562 Z M 288.746094 143.222656 C 288.496094 143.222656 288.257812 143.175781 288.027344 143.082031 C 287.800781 142.984375 287.597656 142.851562 287.421875 142.675781 C 287.246094 142.5 287.109375 142.296875 287.015625 142.066406 C 286.917969 141.835938 286.871094 141.597656 286.871094 141.347656 C 286.871094 141.101562 286.917969 140.859375 287.015625 140.632812 C 287.109375 140.402344 287.246094 140.199219 287.421875 140.023438 C 287.597656 139.847656 287.800781 139.710938 288.027344 139.617188 C 288.257812 139.519531 288.496094 139.472656 288.746094 139.472656 C 288.996094 139.472656 289.234375 139.519531 289.464844 139.617188 C 289.695312 139.710938 289.894531 139.847656 290.070312 140.023438 C 290.25 140.199219 290.382812 140.402344 290.480469 140.632812 C 290.574219 140.859375 290.621094 141.101562 290.621094 141.347656 C 290.621094 141.597656 290.574219 141.835938 290.480469 142.066406 C 290.382812 142.296875 290.25 142.5 290.070312 142.675781 C 289.894531 142.851562 289.695312 142.984375 289.464844 143.082031 C 289.234375 143.175781 288.996094 143.222656 288.746094 143.222656 Z M 288.746094 150.722656 C 288.496094 150.722656 288.257812 150.671875 288.027344 150.578125 C 287.800781 150.484375 287.597656 150.347656 287.421875 150.171875 C 287.246094 149.996094 287.109375 149.792969 287.015625 149.5625 C 286.917969 149.335938 286.871094 149.09375 286.871094 148.847656 C 286.871094 148.597656 286.917969 148.359375 287.015625 148.128906 C 287.109375 147.898438 287.246094 147.695312 287.421875 147.519531 C 287.597656 147.34375 287.800781 147.210938 288.027344 147.113281 C 288.257812 147.019531 288.496094 146.972656 288.746094 146.972656 C 288.996094 146.972656 289.234375 147.019531 289.464844 147.113281 C 289.695312 147.210938 289.894531 147.34375 290.070312 147.519531 C 290.25 147.695312 290.382812 147.898438 290.480469 148.128906 C 290.574219 148.359375 290.621094 148.597656 290.621094 148.847656 C 290.621094 149.09375 290.574219 149.335938 290.480469 149.5625 C 290.382812 149.792969 290.25 149.996094 290.070312 150.171875 C 289.894531 150.347656 289.695312 150.484375 289.464844 150.578125 C 289.234375 150.671875 288.996094 150.722656 288.746094 150.722656 Z M 288.746094 158.21875 C 288.496094 158.21875 288.257812 158.171875 288.027344 158.078125 C 287.800781 157.980469 287.597656 157.847656 287.421875 157.671875 C 287.246094 157.496094 287.109375 157.292969 287.015625 157.0625 C 286.917969 156.832031 286.871094 156.59375 286.871094 156.34375 C 286.871094 156.097656 286.917969 155.855469 287.015625 155.628906 C 287.109375 155.398438 287.246094 155.195312 287.421875 155.019531 C 287.597656 154.84375 287.800781 154.707031 288.027344 154.613281 C 288.257812 154.519531 288.496094 154.46875 288.746094 154.46875 C 288.996094 154.46875 289.234375 154.519531 289.464844 154.613281 C 289.695312 154.707031 289.894531 154.84375 290.070312 155.019531 C 290.25 155.195312 290.382812 155.398438 290.480469 155.628906 C 290.574219 155.855469 290.621094 156.097656 290.621094 156.34375 C 290.621094 156.59375 290.574219 156.832031 290.480469 157.0625 C 290.382812 157.292969 290.25 157.496094 290.070312 157.671875 C 289.894531 157.847656 289.695312 157.980469 289.464844 158.078125 C 289.234375 158.171875 288.996094 158.21875 288.746094 158.21875 Z M 288.746094 165.71875 C 288.496094 165.71875 288.257812 165.671875 288.027344 165.574219 C 287.800781 165.480469 287.597656 165.34375 287.421875 165.167969 C 287.246094 164.992188 287.109375 164.789062 287.015625 164.558594 C 286.917969 164.332031 286.871094 164.089844 286.871094 163.84375 C 286.871094 163.59375 286.917969 163.355469 287.015625 163.125 C 287.109375 162.894531 287.246094 162.695312 287.421875 162.519531 C 287.597656 162.34375 287.800781 162.207031 288.027344 162.109375 C 288.257812 162.015625 288.496094 161.96875 288.746094 161.96875 C 288.996094 161.96875 289.234375 162.015625 289.464844 162.109375 C 289.695312 162.207031 289.894531 162.34375 290.070312 162.519531 C 290.25 162.695312 290.382812 162.894531 290.480469 163.125 C 290.574219 163.355469 290.621094 163.59375 290.621094 163.84375 C 290.621094 164.089844 290.574219 164.332031 290.480469 164.558594 C 290.382812 164.789062 290.25 164.992188 290.070312 165.167969 C 289.894531 165.34375 289.695312 165.480469 289.464844 165.574219 C 289.234375 165.671875 288.996094 165.71875 288.746094 165.71875 Z M 288.746094 173.214844 C 288.496094 173.214844 288.257812 173.167969 288.027344 173.074219 C 287.800781 172.976562 287.597656 172.84375 287.421875 172.667969 C 287.246094 172.492188 287.109375 172.289062 287.015625 172.058594 C 286.917969 171.828125 286.871094 171.589844 286.871094 171.339844 C 286.871094 171.09375 286.917969 170.855469 287.015625 170.625 C 287.109375 170.394531 287.246094 170.191406 287.421875 170.015625 C 287.597656 169.839844 287.800781 169.703125 288.027344 169.609375 C 288.257812 169.515625 288.496094 169.46875 288.746094 169.46875 C 288.996094 169.46875 289.234375 169.515625 289.464844 169.609375 C 289.695312 169.703125 289.894531 169.839844 290.070312 170.015625 C 290.25 170.191406 290.382812 170.394531 290.480469 170.625 C 290.574219 170.855469 290.621094 171.09375 290.621094 171.339844 C 290.621094 171.589844 290.574219 171.828125 290.480469 172.058594 C 290.382812 172.289062 290.25 172.492188 290.070312 172.667969 C 289.894531 172.84375 289.695312 172.976562 289.464844 173.074219 C 289.234375 173.167969 288.996094 173.214844 288.746094 173.214844 Z M 288.746094 180.714844 C 288.496094 180.714844 288.257812 180.667969 288.027344 180.570312 C 287.800781 180.476562 287.597656 180.339844 287.421875 180.164062 C 287.246094 179.988281 287.109375 179.785156 287.015625 179.558594 C 286.917969 179.328125 286.871094 179.089844 286.871094 178.839844 C 286.871094 178.589844 286.917969 178.351562 287.015625 178.121094 C 287.109375 177.894531 287.246094 177.691406 287.421875 177.515625 C 287.597656 177.339844 287.800781 177.203125 288.027344 177.109375 C 288.257812 177.011719 288.496094 176.964844 288.746094 176.964844 C 288.996094 176.964844 289.234375 177.011719 289.464844 177.109375 C 289.695312 177.203125 289.894531 177.339844 290.070312 177.515625 C 290.25 177.691406 290.382812 177.894531 290.480469 178.121094 C 290.574219 178.351562 290.621094 178.589844 290.621094 178.839844 C 290.621094 179.089844 290.574219 179.328125 290.480469 179.558594 C 290.382812 179.785156 290.25 179.988281 290.070312 180.164062 C 289.894531 180.339844 289.695312 180.476562 289.464844 180.570312 C 289.234375 180.667969 288.996094 180.714844 288.746094 180.714844 Z M 288.746094 188.210938 C 288.496094 188.210938 288.257812 188.164062 288.027344 188.070312 C 287.800781 187.976562 287.597656 187.839844 287.421875 187.664062 C 287.246094 187.488281 287.109375 187.285156 287.015625 187.054688 C 286.917969 186.824219 286.871094 186.585938 286.871094 186.339844 C 286.871094 186.089844 286.917969 185.851562 287.015625 185.621094 C 287.109375 185.390625 287.246094 185.1875 287.421875 185.011719 C 287.597656 184.835938 287.800781 184.703125 288.027344 184.605469 C 288.257812 184.511719 288.496094 184.464844 288.746094 184.464844 C 288.996094 184.464844 289.234375 184.511719 289.464844 184.605469 C 289.695312 184.703125 289.894531 184.835938 290.070312 185.011719 C 290.25 185.1875 290.382812 185.390625 290.480469 185.621094 C 290.574219 185.851562 290.621094 186.089844 290.621094 186.339844 C 290.621094 186.585938 290.574219 186.824219 290.480469 187.054688 C 290.382812 187.285156 290.25 187.488281 290.070312 187.664062 C 289.894531 187.839844 289.695312 187.976562 289.464844 188.070312 C 289.234375 188.164062 288.996094 188.210938 288.746094 188.210938 Z M 288.746094 195.710938 C 288.496094 195.710938 288.257812 195.664062 288.027344 195.566406 C 287.800781 195.472656 287.597656 195.335938 287.421875 195.160156 C 287.246094 194.984375 287.109375 194.785156 287.015625 194.554688 C 286.917969 194.324219 286.871094 194.085938 286.871094 193.835938 C 286.871094 193.585938 286.917969 193.347656 287.015625 193.117188 C 287.109375 192.890625 287.246094 192.6875 287.421875 192.511719 C 287.597656 192.335938 287.800781 192.199219 288.027344 192.105469 C 288.257812 192.007812 288.496094 191.960938 288.746094 191.960938 C 288.996094 191.960938 289.234375 192.007812 289.464844 192.105469 C 289.695312 192.199219 289.894531 192.335938 290.070312 192.511719 C 290.25 192.6875 290.382812 192.890625 290.480469 193.117188 C 290.574219 193.347656 290.621094 193.585938 290.621094 193.835938 C 290.621094 194.085938 290.574219 194.324219 290.480469 194.554688 C 290.382812 194.785156 290.25 194.984375 290.070312 195.160156 C 289.894531 195.335938 289.695312 195.472656 289.464844 195.566406 C 289.234375 195.664062 288.996094 195.710938 288.746094 195.710938 Z M 288.746094 203.210938 C 288.496094 203.210938 288.257812 203.160156 288.027344 203.066406 C 287.800781 202.972656 287.597656 202.835938 287.421875 202.660156 C 287.246094 202.484375 287.109375 202.28125 287.015625 202.050781 C 286.917969 201.820312 286.871094 201.582031 286.871094 201.335938 C 286.871094 201.085938 286.917969 200.847656 287.015625 200.617188 C 287.109375 200.386719 287.246094 200.183594 287.421875 200.007812 C 287.597656 199.832031 287.800781 199.699219 288.027344 199.601562 C 288.257812 199.507812 288.496094 199.460938 288.746094 199.460938 C 288.996094 199.460938 289.234375 199.507812 289.464844 199.601562 C 289.695312 199.699219 289.894531 199.832031 290.070312 200.007812 C 290.25 200.183594 290.382812 200.386719 290.480469 200.617188 C 290.574219 200.847656 290.621094 201.085938 290.621094 201.335938 C 290.621094 201.582031 290.574219 201.820312 290.480469 202.050781 C 290.382812 202.28125 290.25 202.484375 290.070312 202.660156 C 289.894531 202.835938 289.695312 202.972656 289.464844 203.066406 C 289.234375 203.160156 288.996094 203.210938 288.746094 203.210938 Z M 288.746094 210.707031 C 288.496094 210.707031 288.257812 210.660156 288.027344 210.566406 C 287.800781 210.46875 287.597656 210.335938 287.421875 210.160156 C 287.246094 209.984375 287.109375 209.78125 287.015625 209.550781 C 286.917969 209.320312 286.871094 209.082031 286.871094 208.832031 C 286.871094 208.585938 286.917969 208.34375 287.015625 208.117188 C 287.109375 207.886719 287.246094 207.683594 287.421875 207.507812 C 287.597656 207.332031 287.800781 207.195312 288.027344 207.101562 C 288.257812 207.003906 288.496094 206.957031 288.746094 206.957031 C 288.996094 206.957031 289.234375 207.003906 289.464844 207.101562 C 289.695312 207.195312 289.894531 207.332031 290.070312 207.507812 C 290.25 207.683594 290.382812 207.886719 290.480469 208.117188 C 290.574219 208.34375 290.621094 208.585938 290.621094 208.832031 C 290.621094 209.082031 290.574219 209.320312 290.480469 209.550781 C 290.382812 209.78125 290.25 209.984375 290.070312 210.160156 C 289.894531 210.335938 289.695312 210.46875 289.464844 210.566406 C 289.234375 210.660156 288.996094 210.707031 288.746094 210.707031 Z M 288.746094 218.207031 C 288.496094 218.207031 288.257812 218.15625 288.027344 218.0625 C 287.800781 217.96875 287.597656 217.832031 287.421875 217.65625 C 287.246094 217.480469 287.109375 217.277344 287.015625 217.046875 C 286.917969 216.820312 286.871094 216.578125 286.871094 216.332031 C 286.871094 216.082031 286.917969 215.84375 287.015625 215.613281 C 287.109375 215.382812 287.246094 215.179688 287.421875 215.003906 C 287.597656 214.828125 287.800781 214.695312 288.027344 214.597656 C 288.257812 214.503906 288.496094 214.457031 288.746094 214.457031 C 288.996094 214.457031 289.234375 214.503906 289.464844 214.597656 C 289.695312 214.695312 289.894531 214.828125 290.070312 215.003906 C 290.25 215.179688 290.382812 215.382812 290.480469 215.613281 C 290.574219 215.84375 290.621094 216.082031 290.621094 216.332031 C 290.621094 216.578125 290.574219 216.820312 290.480469 217.046875 C 290.382812 217.277344 290.25 217.480469 290.070312 217.65625 C 289.894531 217.832031 289.695312 217.96875 289.464844 218.0625 C 289.234375 218.15625 288.996094 218.207031 288.746094 218.207031 Z M 288.746094 225.703125 C 288.496094 225.703125 288.257812 225.65625 288.027344 225.5625 C 287.800781 225.464844 287.597656 225.332031 287.421875 225.15625 C 287.246094 224.980469 287.109375 224.777344 287.015625 224.546875 C 286.917969 224.316406 286.871094 224.078125 286.871094 223.828125 C 286.871094 223.582031 286.917969 223.339844 287.015625 223.113281 C 287.109375 222.882812 287.246094 222.679688 287.421875 222.503906 C 287.597656 222.328125 287.800781 222.191406 288.027344 222.097656 C 288.257812 222.003906 288.496094 221.953125 288.746094 221.953125 C 288.996094 221.953125 289.234375 222.003906 289.464844 222.097656 C 289.695312 222.191406 289.894531 222.328125 290.070312 222.503906 C 290.25 222.679688 290.382812 222.882812 290.480469 223.113281 C 290.574219 223.339844 290.621094 223.582031 290.621094 223.828125 C 290.621094 224.078125 290.574219 224.316406 290.480469 224.546875 C 290.382812 224.777344 290.25 224.980469 290.070312 225.15625 C 289.894531 225.332031 289.695312 225.464844 289.464844 225.5625 C 289.234375 225.65625 288.996094 225.703125 288.746094 225.703125 Z M 288.746094 233.203125 C 288.496094 233.203125 288.257812 233.15625 288.027344 233.058594 C 287.800781 232.964844 287.597656 232.828125 287.421875 232.652344 C 287.246094 232.476562 287.109375 232.273438 287.015625 232.042969 C 286.917969 231.816406 286.871094 231.574219 286.871094 231.328125 C 286.871094 231.078125 286.917969 230.839844 287.015625 230.609375 C 287.109375 230.378906 287.246094 230.179688 287.421875 230.003906 C 287.597656 229.828125 287.800781 229.691406 288.027344 229.59375 C 288.257812 229.5 288.496094 229.453125 288.746094 229.453125 C 288.996094 229.453125 289.234375 229.5 289.464844 229.59375 C 289.695312 229.691406 289.894531 229.828125 290.070312 230.003906 C 290.25 230.179688 290.382812 230.378906 290.480469 230.609375 C 290.574219 230.839844 290.621094 231.078125 290.621094 231.328125 C 290.621094 231.574219 290.574219 231.816406 290.480469 232.042969 C 290.382812 232.273438 290.25 232.476562 290.070312 232.652344 C 289.894531 232.828125 289.695312 232.964844 289.464844 233.058594 C 289.234375 233.15625 288.996094 233.203125 288.746094 233.203125 Z M 288.746094 240.699219 C 288.496094 240.699219 288.257812 240.652344 288.027344 240.558594 C 287.800781 240.460938 287.597656 240.328125 287.421875 240.152344 C 287.246094 239.976562 287.109375 239.773438 287.015625 239.542969 C 286.917969 239.3125 286.871094 239.074219 286.871094 238.824219 C 286.871094 238.578125 286.917969 238.339844 287.015625 238.109375 C 287.109375 237.878906 287.246094 237.675781 287.421875 237.5 C 287.597656 237.324219 287.800781 237.1875 288.027344 237.09375 C 288.257812 237 288.496094 236.953125 288.746094 236.953125 C 288.996094 236.953125 289.234375 237 289.464844 237.09375 C 289.695312 237.1875 289.894531 237.324219 290.070312 237.5 C 290.25 237.675781 290.382812 237.878906 290.480469 238.109375 C 290.574219 238.339844 290.621094 238.578125 290.621094 238.824219 C 290.621094 239.074219 290.574219 239.3125 290.480469 239.542969 C 290.382812 239.773438 290.25 239.976562 290.070312 240.152344 C 289.894531 240.328125 289.695312 240.460938 289.464844 240.558594 C 289.234375 240.652344 288.996094 240.699219 288.746094 240.699219 Z M 288.746094 248.199219 C 288.496094 248.199219 288.257812 248.152344 288.027344 248.054688 C 287.800781 247.960938 287.597656 247.824219 287.421875 247.648438 C 287.246094 247.472656 287.109375 247.269531 287.015625 247.042969 C 286.917969 246.8125 286.871094 246.574219 286.871094 246.324219 C 286.871094 246.074219 286.917969 245.835938 287.015625 245.605469 C 287.109375 245.378906 287.246094 245.175781 287.421875 245 C 287.597656 244.824219 287.800781 244.6875 288.027344 244.59375 C 288.257812 244.496094 288.496094 244.449219 288.746094 244.449219 C 288.996094 244.449219 289.234375 244.496094 289.464844 244.59375 C 289.695312 244.6875 289.894531 244.824219 290.070312 245 C 290.25 245.175781 290.382812 245.378906 290.480469 245.605469 C 290.574219 245.835938 290.621094 246.074219 290.621094 246.324219 C 290.621094 246.574219 290.574219 246.8125 290.480469 247.042969 C 290.382812 247.269531 290.25 247.472656 290.070312 247.648438 C 289.894531 247.824219 289.695312 247.960938 289.464844 248.054688 C 289.234375 248.152344 288.996094 248.199219 288.746094 248.199219 Z M 288.746094 248.199219 " fill-opacity="1" fill-rule="nonzero"/><path fill="rgb(35.688782%, 72.549438%, 92.158508%)" d="M 86.246094 105.71875 C 85.996094 105.71875 85.757812 105.671875 85.527344 105.578125 C 85.300781 105.480469 85.097656 105.347656 84.921875 105.171875 C 84.746094 104.996094 84.609375 104.792969 84.515625 104.5625 C 84.417969 104.332031 84.371094 104.09375 84.371094 103.84375 C 84.371094 103.597656 84.417969 103.359375 84.515625 103.128906 C 84.609375 102.898438 84.746094 102.695312 84.921875 102.519531 C 85.097656 102.34375 85.300781 102.207031 85.527344 102.113281 C 85.757812 102.019531 85.996094 101.972656 86.246094 101.972656 C 86.496094 101.972656 86.734375 102.019531 86.964844 102.113281 C 87.195312 102.207031 87.398438 102.34375 87.574219 102.519531 C 87.75 102.695312 87.882812 102.898438 87.980469 103.128906 C 88.074219 103.359375 88.121094 103.597656 88.121094 103.84375 C 88.121094 104.09375 88.074219 104.332031 87.980469 104.5625 C 87.882812 104.792969 87.75 104.996094 87.574219 105.171875 C 87.398438 105.347656 87.195312 105.480469 86.964844 105.578125 C 86.734375 105.671875 86.496094 105.71875 86.246094 105.71875 Z M 86.246094 113.21875 C 85.996094 113.21875 85.757812 113.167969 85.527344 113.074219 C 85.300781 112.980469 85.097656 112.84375 84.921875 112.667969 C 84.746094 112.492188 84.609375 112.289062 84.515625 112.058594 C 84.417969 111.832031 84.371094 111.589844 84.371094 111.34375 C 84.371094 111.09375 84.417969 110.855469 84.515625 110.625 C 84.609375 110.394531 84.746094 110.191406 84.921875 110.015625 C 85.097656 109.84375 85.300781 109.707031 85.527344 109.609375 C 85.757812 109.515625 85.996094 109.46875 86.246094 109.46875 C 86.496094 109.46875 86.734375 109.515625 86.964844 109.609375 C 87.195312 109.707031 87.398438 109.84375 87.574219 110.015625 C 87.75 110.191406 87.882812 110.394531 87.980469 110.625 C 88.074219 110.855469 88.121094 111.09375 88.121094 111.34375 C 88.121094 111.589844 88.074219 111.832031 87.980469 112.058594 C 87.882812 112.289062 87.75 112.492188 87.574219 112.667969 C 87.398438 112.84375 87.195312 112.980469 86.964844 113.074219 C 86.734375 113.167969 86.496094 113.21875 86.246094 113.21875 Z M 86.246094 120.714844 C 85.996094 120.714844 85.757812 120.667969 85.527344 120.574219 C 85.300781 120.476562 85.097656 120.34375 84.921875 120.167969 C 84.746094 119.992188 84.609375 119.789062 84.515625 119.558594 C 84.417969 119.328125 84.371094 119.089844 84.371094 118.839844 C 84.371094 118.59375 84.417969 118.351562 84.515625 118.125 C 84.609375 117.894531 84.746094 117.691406 84.921875 117.515625 C 85.097656 117.339844 85.300781 117.203125 85.527344 117.109375 C 85.757812 117.015625 85.996094 116.964844 86.246094 116.964844 C 86.496094 116.964844 86.734375 117.015625 86.964844 117.109375 C 87.195312 117.203125 87.398438 117.339844 87.574219 117.515625 C 87.75 117.691406 87.882812 117.894531 87.980469 118.125 C 88.074219 118.351562 88.121094 118.59375 88.121094 118.839844 C 88.121094 119.089844 88.074219 119.328125 87.980469 119.558594 C 87.882812 119.789062 87.75 119.992188 87.574219 120.167969 C 87.398438 120.34375 87.195312 120.476562 86.964844 120.574219 C 86.734375 120.667969 86.496094 120.714844 86.246094 120.714844 Z M 86.246094 128.210938 C 85.996094 128.210938 85.757812 128.164062 85.527344 128.070312 C 85.300781 127.976562 85.097656 127.839844 84.921875 127.664062 C 84.746094 127.488281 84.609375 127.285156 84.515625 127.054688 C 84.417969 126.824219 84.371094 126.585938 84.371094 126.339844 C 84.371094 126.089844 84.417969 125.851562 84.515625 125.621094 C 84.609375 125.390625 84.746094 125.1875 84.921875 125.011719 C 85.097656 124.835938 85.300781 124.703125 85.527344 124.605469 C 85.757812 124.511719 85.996094 124.464844 86.246094 124.464844 C 86.496094 124.464844 86.734375 124.511719 86.964844 124.605469 C 87.195312 124.703125 87.398438 124.835938 87.574219 125.011719 C 87.75 125.1875 87.882812 125.390625 87.980469 125.621094 C 88.074219 125.851562 88.121094 126.089844 88.121094 126.339844 C 88.121094 126.585938 88.074219 126.824219 87.980469 127.054688 C 87.882812 127.285156 87.75 127.488281 87.574219 127.664062 C 87.398438 127.839844 87.195312 127.976562 86.964844 128.070312 C 86.734375 128.164062 86.496094 128.210938 86.246094 128.210938 Z M 86.246094 135.710938 C 85.996094 135.710938 85.757812 135.664062 85.527344 135.566406 C 85.300781 135.472656 85.097656 135.335938 84.921875 135.160156 C 84.746094 134.984375 84.609375 134.78125 84.515625 134.554688 C 84.417969 134.324219 84.371094 134.085938 84.371094 133.835938 C 84.371094 133.585938 84.417969 133.347656 84.515625 133.117188 C 84.609375 132.890625 84.746094 132.6875 84.921875 132.511719 C 85.097656 132.335938 85.300781 132.199219 85.527344 132.105469 C 85.757812 132.007812 85.996094 131.960938 86.246094 131.960938 C 86.496094 131.960938 86.734375 132.007812 86.964844 132.105469 C 87.195312 132.199219 87.398438 132.335938 87.574219 132.511719 C 87.75 132.6875 87.882812 132.890625 87.980469 133.117188 C 88.074219 133.347656 88.121094 133.585938 88.121094 133.835938 C 88.121094 134.085938 88.074219 134.324219 87.980469 134.554688 C 87.882812 134.78125 87.75 134.984375 87.574219 135.160156 C 87.398438 135.335938 87.195312 135.472656 86.964844 135.566406 C 86.734375 135.664062 86.496094 135.710938 86.246094 135.710938 Z M 86.246094 143.207031 C 85.996094 143.207031 85.757812 143.160156 85.527344 143.066406 C 85.300781 142.96875 85.097656 142.835938 84.921875 142.660156 C 84.746094 142.484375 84.609375 142.28125 84.515625 142.050781 C 84.417969 141.820312 84.371094 141.582031 84.371094 141.332031 C 84.371094 141.085938 84.417969 140.847656 84.515625 140.617188 C 84.609375 140.386719 84.746094 140.183594 84.921875 140.007812 C 85.097656 139.832031 85.300781 139.695312 85.527344 139.601562 C 85.757812 139.507812 85.996094 139.460938 86.246094 139.460938 C 86.496094 139.460938 86.734375 139.507812 86.964844 139.601562 C 87.195312 139.695312 87.398438 139.832031 87.574219 140.007812 C 87.75 140.183594 87.882812 140.386719 87.980469 140.617188 C 88.074219 140.847656 88.121094 141.085938 88.121094 141.332031 C 88.121094 141.582031 88.074219 141.820312 87.980469 142.050781 C 87.882812 142.28125 87.75 142.484375 87.574219 142.660156 C 87.398438 142.835938 87.195312 142.96875 86.964844 143.066406 C 86.734375 143.160156 86.496094 143.207031 86.246094 143.207031 Z M 86.246094 150.707031 C 85.996094 150.707031 85.757812 150.660156 85.527344 150.5625 C 85.300781 150.46875 85.097656 150.332031 84.921875 150.15625 C 84.746094 149.980469 84.609375 149.777344 84.515625 149.546875 C 84.417969 149.320312 84.371094 149.078125 84.371094 148.832031 C 84.371094 148.582031 84.417969 148.34375 84.515625 148.113281 C 84.609375 147.882812 84.746094 147.683594 84.921875 147.507812 C 85.097656 147.332031 85.300781 147.195312 85.527344 147.101562 C 85.757812 147.003906 85.996094 146.957031 86.246094 146.957031 C 86.496094 146.957031 86.734375 147.003906 86.964844 147.101562 C 87.195312 147.195312 87.398438 147.332031 87.574219 147.507812 C 87.75 147.683594 87.882812 147.882812 87.980469 148.113281 C 88.074219 148.34375 88.121094 148.582031 88.121094 148.832031 C 88.121094 149.078125 88.074219 149.320312 87.980469 149.546875 C 87.882812 149.777344 87.75 149.980469 87.574219 150.15625 C 87.398438 150.332031 87.195312 150.46875 86.964844 150.5625 C 86.734375 150.660156 86.496094 150.707031 86.246094 150.707031 Z M 86.246094 158.203125 C 85.996094 158.203125 85.757812 158.15625 85.527344 158.0625 C 85.300781 157.964844 85.097656 157.832031 84.921875 157.65625 C 84.746094 157.480469 84.609375 157.277344 84.515625 157.046875 C 84.417969 156.816406 84.371094 156.578125 84.371094 156.328125 C 84.371094 156.082031 84.417969 155.839844 84.515625 155.613281 C 84.609375 155.382812 84.746094 155.179688 84.921875 155.003906 C 85.097656 154.828125 85.300781 154.691406 85.527344 154.597656 C 85.757812 154.503906 85.996094 154.453125 86.246094 154.453125 C 86.496094 154.453125 86.734375 154.503906 86.964844 154.597656 C 87.195312 154.691406 87.398438 154.828125 87.574219 155.003906 C 87.75 155.179688 87.882812 155.382812 87.980469 155.613281 C 88.074219 155.839844 88.121094 156.082031 88.121094 156.328125 C 88.121094 156.578125 88.074219 156.816406 87.980469 157.046875 C 87.882812 157.277344 87.75 157.480469 87.574219 157.65625 C 87.398438 157.832031 87.195312 157.964844 86.964844 158.0625 C 86.734375 158.15625 86.496094 158.203125 86.246094 158.203125 Z M 86.246094 165.699219 C 85.996094 165.699219 85.757812 165.652344 85.527344 165.558594 C 85.300781 165.464844 85.097656 165.328125 84.921875 165.152344 C 84.746094 164.976562 84.609375 164.773438 84.515625 164.542969 C 84.417969 164.3125 84.371094 164.074219 84.371094 163.828125 C 84.371094 163.578125 84.417969 163.339844 84.515625 163.109375 C 84.609375 162.878906 84.746094 162.675781 84.921875 162.5 C 85.097656 162.324219 85.300781 162.191406 85.527344 162.09375 C 85.757812 162 85.996094 161.953125 86.246094 161.953125 C 86.496094 161.953125 86.734375 162 86.964844 162.09375 C 87.195312 162.191406 87.398438 162.324219 87.574219 162.5 C 87.75 162.675781 87.882812 162.878906 87.980469 163.109375 C 88.074219 163.339844 88.121094 163.578125 88.121094 163.828125 C 88.121094 164.074219 88.074219 164.3125 87.980469 164.542969 C 87.882812 164.773438 87.75 164.976562 87.574219 165.152344 C 87.398438 165.328125 87.195312 165.464844 86.964844 165.558594 C 86.734375 165.652344 86.496094 165.699219 86.246094 165.699219 Z M 86.246094 173.199219 C 85.996094 173.199219 85.757812 173.152344 85.527344 173.054688 C 85.300781 172.960938 85.097656 172.824219 84.921875 172.648438 C 84.746094 172.472656 84.609375 172.269531 84.515625 172.042969 C 84.417969 171.8125 84.371094 171.574219 84.371094 171.324219 C 84.371094 171.074219 84.417969 170.835938 84.515625 170.605469 C 84.609375 170.378906 84.746094 170.175781 84.921875 170 C 85.097656 169.824219 85.300781 169.6875 85.527344 169.59375 C 85.757812 169.496094 85.996094 169.449219 86.246094 169.449219 C 86.496094 169.449219 86.734375 169.496094 86.964844 169.59375 C 87.195312 169.6875 87.398438 169.824219 87.574219 170 C 87.75 170.175781 87.882812 170.378906 87.980469 170.605469 C 88.074219 170.835938 88.121094 171.074219 88.121094 171.324219 C 88.121094 171.574219 88.074219 171.8125 87.980469 172.042969 C 87.882812 172.269531 87.75 172.472656 87.574219 172.648438 C 87.398438 172.824219 87.195312 172.960938 86.964844 173.054688 C 86.734375 173.152344 86.496094 173.199219 86.246094 173.199219 Z M 86.246094 180.695312 C 85.996094 180.695312 85.757812 180.648438 85.527344 180.554688 C 85.300781 180.457031 85.097656 180.324219 84.921875 180.148438 C 84.746094 179.972656 84.609375 179.769531 84.515625 179.539062 C 84.417969 179.308594 84.371094 179.070312 84.371094 178.820312 C 84.371094 178.574219 84.417969 178.335938 84.515625 178.105469 C 84.609375 177.875 84.746094 177.671875 84.921875 177.496094 C 85.097656 177.320312 85.300781 177.183594 85.527344 177.089844 C 85.757812 176.996094 85.996094 176.949219 86.246094 176.949219 C 86.496094 176.949219 86.734375 176.996094 86.964844 177.089844 C 87.195312 177.183594 87.398438 177.320312 87.574219 177.496094 C 87.75 177.671875 87.882812 177.875 87.980469 178.105469 C 88.074219 178.335938 88.121094 178.574219 88.121094 178.820312 C 88.121094 179.070312 88.074219 179.308594 87.980469 179.539062 C 87.882812 179.769531 87.75 179.972656 87.574219 180.148438 C 87.398438 180.324219 87.195312 180.457031 86.964844 180.554688 C 86.734375 180.648438 86.496094 180.695312 86.246094 180.695312 Z M 86.246094 188.195312 C 85.996094 188.195312 85.757812 188.148438 85.527344 188.050781 C 85.300781 187.957031 85.097656 187.820312 84.921875 187.644531 C 84.746094 187.46875 84.609375 187.265625 84.515625 187.035156 C 84.417969 186.808594 84.371094 186.566406 84.371094 186.320312 C 84.371094 186.070312 84.417969 185.832031 84.515625 185.601562 C 84.609375 185.371094 84.746094 185.171875 84.921875 184.996094 C 85.097656 184.820312 85.300781 184.683594 85.527344 184.589844 C 85.757812 184.492188 85.996094 184.445312 86.246094 184.445312 C 86.496094 184.445312 86.734375 184.492188 86.964844 184.589844 C 87.195312 184.683594 87.398438 184.820312 87.574219 184.996094 C 87.75 185.171875 87.882812 185.371094 87.980469 185.601562 C 88.074219 185.832031 88.121094 186.070312 88.121094 186.320312 C 88.121094 186.566406 88.074219 186.808594 87.980469 187.035156 C 87.882812 187.265625 87.75 187.46875 87.574219 187.644531 C 87.398438 187.820312 87.195312 187.957031 86.964844 188.050781 C 86.734375 188.148438 86.496094 188.195312 86.246094 188.195312 Z M 86.246094 195.691406 C 85.996094 195.691406 85.757812 195.644531 85.527344 195.550781 C 85.300781 195.453125 85.097656 195.320312 84.921875 195.144531 C 84.746094 194.96875 84.609375 194.765625 84.515625 194.535156 C 84.417969 194.304688 84.371094 194.066406 84.371094 193.816406 C 84.371094 193.570312 84.417969 193.328125 84.515625 193.101562 C 84.609375 192.871094 84.746094 192.667969 84.921875 192.492188 C 85.097656 192.316406 85.300781 192.179688 85.527344 192.085938 C 85.757812 191.992188 85.996094 191.941406 86.246094 191.941406 C 86.496094 191.941406 86.734375 191.992188 86.964844 192.085938 C 87.195312 192.179688 87.398438 192.316406 87.574219 192.492188 C 87.75 192.667969 87.882812 192.871094 87.980469 193.101562 C 88.074219 193.328125 88.121094 193.570312 88.121094 193.816406 C 88.121094 194.066406 88.074219 194.304688 87.980469 194.535156 C 87.882812 194.765625 87.75 194.96875 87.574219 195.144531 C 87.398438 195.320312 87.195312 195.453125 86.964844 195.550781 C 86.734375 195.644531 86.496094 195.691406 86.246094 195.691406 Z M 86.246094 203.191406 C 85.996094 203.191406 85.757812 203.140625 85.527344 203.046875 C 85.300781 202.953125 85.097656 202.816406 84.921875 202.640625 C 84.746094 202.464844 84.609375 202.261719 84.515625 202.03125 C 84.417969 201.804688 84.371094 201.5625 84.371094 201.316406 C 84.371094 201.066406 84.417969 200.828125 84.515625 200.597656 C 84.609375 200.367188 84.746094 200.164062 84.921875 199.988281 C 85.097656 199.8125 85.300781 199.679688 85.527344 199.582031 C 85.757812 199.488281 85.996094 199.441406 86.246094 199.441406 C 86.496094 199.441406 86.734375 199.488281 86.964844 199.582031 C 87.195312 199.679688 87.398438 199.8125 87.574219 199.988281 C 87.75 200.164062 87.882812 200.367188 87.980469 200.597656 C 88.074219 200.828125 88.121094 201.066406 88.121094 201.316406 C 88.121094 201.5625 88.074219 201.804688 87.980469 202.03125 C 87.882812 202.261719 87.75 202.464844 87.574219 202.640625 C 87.398438 202.816406 87.195312 202.953125 86.964844 203.046875 C 86.734375 203.140625 86.496094 203.191406 86.246094 203.191406 Z M 86.246094 210.6875 C 85.996094 210.6875 85.757812 210.640625 85.527344 210.542969 C 85.300781 210.449219 85.097656 210.3125 84.921875 210.136719 C 84.746094 209.960938 84.609375 209.757812 84.515625 209.53125 C 84.417969 209.300781 84.371094 209.0625 84.371094 208.8125 C 84.371094 208.5625 84.417969 208.324219 84.515625 208.09375 C 84.609375 207.867188 84.746094 207.664062 84.921875 207.488281 C 85.097656 207.3125 85.300781 207.175781 85.527344 207.082031 C 85.757812 206.984375 85.996094 206.9375 86.246094 206.9375 C 86.496094 206.9375 86.734375 206.984375 86.964844 207.082031 C 87.195312 207.175781 87.398438 207.3125 87.574219 207.488281 C 87.75 207.664062 87.882812 207.867188 87.980469 208.09375 C 88.074219 208.324219 88.121094 208.5625 88.121094 208.8125 C 88.121094 209.0625 88.074219 209.300781 87.980469 209.53125 C 87.882812 209.757812 87.75 209.960938 87.574219 210.136719 C 87.398438 210.3125 87.195312 210.449219 86.964844 210.542969 C 86.734375 210.640625 86.496094 210.6875 86.246094 210.6875 Z M 86.246094 218.183594 C 85.996094 218.183594 85.757812 218.136719 85.527344 218.042969 C 85.300781 217.945312 85.097656 217.8125 84.921875 217.636719 C 84.746094 217.460938 84.609375 217.257812 84.515625 217.027344 C 84.417969 216.796875 84.371094 216.558594 84.371094 216.308594 C 84.371094 216.0625 84.417969 215.824219 84.515625 215.59375 C 84.609375 215.363281 84.746094 215.160156 84.921875 214.984375 C 85.097656 214.808594 85.300781 214.675781 85.527344 214.578125 C 85.757812 214.484375 85.996094 214.4375 86.246094 214.4375 C 86.496094 214.4375 86.734375 214.484375 86.964844 214.578125 C 87.195312 214.675781 87.398438 214.808594 87.574219 214.984375 C 87.75 215.160156 87.882812 215.363281 87.980469 215.59375 C 88.074219 215.824219 88.121094 216.0625 88.121094 216.308594 C 88.121094 216.558594 88.074219 216.796875 87.980469 217.027344 C 87.882812 217.257812 87.75 217.460938 87.574219 217.636719 C 87.398438 217.8125 87.195312 217.945312 86.964844 218.042969 C 86.734375 218.136719 86.496094 218.183594 86.246094 218.183594 Z M 86.246094 225.683594 C 85.996094 225.683594 85.757812 225.636719 85.527344 225.539062 C 85.300781 225.445312 85.097656 225.308594 84.921875 225.132812 C 84.746094 224.957031 84.609375 224.753906 84.515625 224.527344 C 84.417969 224.296875 84.371094 224.058594 84.371094 223.808594 C 84.371094 223.558594 84.417969 223.320312 84.515625 223.089844 C 84.609375 222.859375 84.746094 222.660156 84.921875 222.484375 C 85.097656 222.308594 85.300781 222.171875 85.527344 222.078125 C 85.757812 221.980469 85.996094 221.933594 86.246094 221.933594 C 86.496094 221.933594 86.734375 221.980469 86.964844 222.078125 C 87.195312 222.171875 87.398438 222.308594 87.574219 222.484375 C 87.75 222.660156 87.882812 222.859375 87.980469 223.089844 C 88.074219 223.320312 88.121094 223.558594 88.121094 223.808594 C 88.121094 224.058594 88.074219 224.296875 87.980469 224.527344 C 87.882812 224.753906 87.75 224.957031 87.574219 225.132812 C 87.398438 225.308594 87.195312 225.445312 86.964844 225.539062 C 86.734375 225.636719 86.496094 225.683594 86.246094 225.683594 Z M 86.246094 233.179688 C 85.996094 233.179688 85.757812 233.132812 85.527344 233.039062 C 85.300781 232.941406 85.097656 232.808594 84.921875 232.632812 C 84.746094 232.457031 84.609375 232.253906 84.515625 232.023438 C 84.417969 231.792969 84.371094 231.554688 84.371094 231.304688 C 84.371094 231.058594 84.417969 230.816406 84.515625 230.589844 C 84.609375 230.359375 84.746094 230.15625 84.921875 229.980469 C 85.097656 229.804688 85.300781 229.667969 85.527344 229.574219 C 85.757812 229.480469 85.996094 229.429688 86.246094 229.429688 C 86.496094 229.429688 86.734375 229.480469 86.964844 229.574219 C 87.195312 229.667969 87.398438 229.804688 87.574219 229.980469 C 87.75 230.15625 87.882812 230.359375 87.980469 230.589844 C 88.074219 230.816406 88.121094 231.058594 88.121094 231.304688 C 88.121094 231.554688 88.074219 231.792969 87.980469 232.023438 C 87.882812 232.253906 87.75 232.457031 87.574219 232.632812 C 87.398438 232.808594 87.195312 232.941406 86.964844 233.039062 C 86.734375 233.132812 86.496094 233.179688 86.246094 233.179688 Z M 86.246094 240.679688 C 85.996094 240.679688 85.757812 240.628906 85.527344 240.535156 C 85.300781 240.441406 85.097656 240.304688 84.921875 240.128906 C 84.746094 239.953125 84.609375 239.75 84.515625 239.519531 C 84.417969 239.292969 84.371094 239.050781 84.371094 238.804688 C 84.371094 238.554688 84.417969 238.316406 84.515625 238.085938 C 84.609375 237.855469 84.746094 237.652344 84.921875 237.476562 C 85.097656 237.300781 85.300781 237.167969 85.527344 237.070312 C 85.757812 236.976562 85.996094 236.929688 86.246094 236.929688 C 86.496094 236.929688 86.734375 236.976562 86.964844 237.070312 C 87.195312 237.167969 87.398438 237.300781 87.574219 237.476562 C 87.75 237.652344 87.882812 237.855469 87.980469 238.085938 C 88.074219 238.316406 88.121094 238.554688 88.121094 238.804688 C 88.121094 239.050781 88.074219 239.292969 87.980469 239.519531 C 87.882812 239.75 87.75 239.953125 87.574219 240.128906 C 87.398438 240.304688 87.195312 240.441406 86.964844 240.535156 C 86.734375 240.628906 86.496094 240.679688 86.246094 240.679688 Z M 86.246094 248.175781 C 85.996094 248.175781 85.757812 248.128906 85.527344 248.03125 C 85.300781 247.9375 85.097656 247.800781 84.921875 247.625 C 84.746094 247.449219 84.609375 247.25 84.515625 247.019531 C 84.417969 246.789062 84.371094 246.550781 84.371094 246.300781 C 84.371094 246.050781 84.417969 245.8125 84.515625 245.582031 C 84.609375 245.355469 84.746094 245.152344 84.921875 244.976562 C 85.097656 244.800781 85.300781 244.664062 85.527344 244.570312 C 85.757812 244.472656 85.996094 244.425781 86.246094 244.425781 C 86.496094 244.425781 86.734375 244.472656 86.964844 244.570312 C 87.195312 244.664062 87.398438 244.800781 87.574219 244.976562 C 87.75 245.152344 87.882812 245.355469 87.980469 245.582031 C 88.074219 245.8125 88.121094 246.050781 88.121094 246.300781 C 88.121094 246.550781 88.074219 246.789062 87.980469 247.019531 C 87.882812 247.25 87.75 247.449219 87.574219 247.625 C 87.398438 247.800781 87.195312 247.9375 86.964844 248.03125 C 86.734375 248.128906 86.496094 248.175781 86.246094 248.175781 Z M 86.246094 248.175781 " fill-opacity="1" fill-rule="nonzero"/><path fill="rgb(49.409485%, 67.449951%, 41.178894%)" d="M 279.523438 217.039062 L 198.59375 199.234375 C 192.5 197.886719 182.5 197.886719 176.40625 199.234375 L 95.476562 217.039062 C 89.382812 218.382812 84.382812 224.597656 84.382812 230.855469 L 84.382812 249.628906 C 84.382812 256.011719 89.382812 262.355469 95.476562 263.738281 L 176.40625 281.964844 C 182.5 283.351562 192.5 283.351562 198.59375 281.964844 L 279.523438 263.738281 C 285.617188 262.355469 290.617188 256.011719 290.617188 249.628906 L 290.617188 230.855469 C 290.617188 224.597656 285.617188 218.382812 279.523438 217.039062 Z M 279.523438 217.039062 " fill-opacity="1" fill-rule="nonzero"/><path fill="rgb(100%, 84.309387%, 0%)" d="M 279.523438 163.914062 L 198.59375 146.105469 C 192.5 144.761719 182.5 144.761719 176.40625 146.105469 L 95.476562 163.914062 C 89.382812 165.257812 84.382812 171.472656 84.382812 177.730469 L 84.382812 196.503906 C 84.382812 202.886719 89.382812 209.226562 95.476562 210.613281 L 176.40625 228.839844 C 182.5 230.226562 192.5 230.226562 198.59375 228.839844 L 279.523438 210.613281 C 285.617188 209.226562 290.617188 202.886719 290.617188 196.503906 L 290.617188 177.730469 C 290.617188 171.472656 285.617188 165.257812 279.523438 163.914062 Z M 279.523438 163.914062 " fill-opacity="1" fill-rule="nonzero"/><path fill="rgb(80.778503%, 0%, 0%)" d="M 279.523438 109.5 L 198.59375 91.695312 C 192.5 90.351562 182.5 90.351562 176.40625 91.695312 L 95.476562 109.5 C 89.382812 110.84375 84.382812 117.058594 84.382812 123.316406 L 84.382812 142.089844 C 84.382812 148.472656 89.382812 154.816406 95.476562 156.199219 L 176.40625 174.425781 C 182.5 175.8125 192.5 175.8125 198.59375 174.425781 L 279.523438 156.199219 C 285.617188 154.816406 290.617188 148.472656 290.617188 142.089844 L 290.617188 123.316406 C 290.617188 117.058594 285.617188 110.84375 279.523438 109.5 Z M 279.523438 109.5 " fill-opacity="1" fill-rule="nonzero"/><path fill="rgb(35.688782%, 72.549438%, 92.158508%)" d="M 185.261719 128.078125 C 185.011719 128.078125 184.773438 128.03125 184.542969 127.9375 C 184.3125 127.84375 184.109375 127.707031 183.933594 127.53125 C 183.757812 127.355469 183.625 127.152344 183.527344 126.925781 C 183.433594 126.695312 183.386719 126.457031 183.386719 126.207031 C 183.386719 125.960938 183.433594 125.722656 183.527344 125.492188 C 183.625 125.261719 183.757812 125.058594 183.933594 124.886719 C 184.109375 124.710938 184.3125 124.574219 184.542969 124.480469 C 184.773438 124.382812 185.011719 124.335938 185.261719 124.335938 C 185.507812 124.335938 185.75 124.382812 185.976562 124.480469 C 186.207031 124.574219 186.410156 124.710938 186.585938 124.886719 C 186.761719 125.058594 186.898438 125.261719 186.992188 125.492188 C 187.089844 125.722656 187.136719 125.960938 187.136719 126.207031 C 187.136719 126.457031 187.089844 126.695312 186.992188 126.925781 C 186.898438 127.152344 186.761719 127.355469 186.585938 127.53125 C 186.410156 127.707031 186.207031 127.84375 185.976562 127.9375 C 185.75 128.03125 185.507812 128.078125 185.261719 128.078125 Z M 185.261719 135.566406 C 185.011719 135.566406 184.773438 135.515625 184.542969 135.421875 C 184.3125 135.328125 184.109375 135.191406 183.933594 135.015625 C 183.757812 134.839844 183.625 134.640625 183.527344 134.410156 C 183.433594 134.179688 183.386719 133.941406 183.386719 133.695312 C 183.386719 133.445312 183.433594 133.207031 183.527344 132.976562 C 183.625 132.746094 183.757812 132.546875 183.933594 132.371094 C 184.109375 132.195312 184.3125 132.058594 184.542969 131.964844 C 184.773438 131.871094 185.011719 131.820312 185.261719 131.820312 C 185.507812 131.820312 185.75 131.871094 185.976562 131.964844 C 186.207031 132.058594 186.410156 132.195312 186.585938 132.371094 C 186.761719 132.546875 186.898438 132.746094 186.992188 132.976562 C 187.089844 133.207031 187.136719 133.445312 187.136719 133.695312 C 187.136719 133.941406 187.089844 134.179688 186.992188 134.410156 C 186.898438 134.640625 186.761719 134.839844 186.585938 135.015625 C 186.410156 135.191406 186.207031 135.328125 185.976562 135.421875 C 185.75 135.515625 185.507812 135.566406 185.261719 135.566406 Z M 185.261719 143.050781 C 185.011719 143.050781 184.773438 143.003906 184.542969 142.90625 C 184.3125 142.8125 184.109375 142.675781 183.933594 142.503906 C 183.757812 142.328125 183.625 142.125 183.527344 141.894531 C 183.433594 141.664062 183.386719 141.425781 183.386719 141.179688 C 183.386719 140.929688 183.433594 140.691406 183.527344 140.460938 C 183.625 140.234375 183.757812 140.03125 183.933594 139.855469 C 184.109375 139.679688 184.3125 139.542969 184.542969 139.449219 C 184.773438 139.355469 185.011719 139.308594 185.261719 139.308594 C 185.507812 139.308594 185.75 139.355469 185.976562 139.449219 C 186.207031 139.542969 186.410156 139.679688 186.585938 139.855469 C 186.761719 140.03125 186.898438 140.234375 186.992188 140.460938 C 187.089844 140.691406 187.136719 140.929688 187.136719 141.179688 C 187.136719 141.425781 187.089844 141.664062 186.992188 141.894531 C 186.898438 142.125 186.761719 142.328125 186.585938 142.503906 C 186.410156 142.675781 186.207031 142.8125 185.976562 142.90625 C 185.75 143.003906 185.507812 143.050781 185.261719 143.050781 Z M 185.261719 150.535156 C 185.011719 150.535156 184.773438 150.488281 184.542969 150.394531 C 184.3125 150.296875 184.109375 150.164062 183.933594 149.988281 C 183.757812 149.8125 183.625 149.609375 183.527344 149.378906 C 183.433594 149.152344 183.386719 148.914062 183.386719 148.664062 C 183.386719 148.414062 183.433594 148.175781 183.527344 147.949219 C 183.625 147.71875 183.757812 147.515625 183.933594 147.339844 C 184.109375 147.164062 184.3125 147.03125 184.542969 146.933594 C 184.773438 146.839844 185.011719 146.792969 185.261719 146.792969 C 185.507812 146.792969 185.75 146.839844 185.976562 146.933594 C 186.207031 147.03125 186.410156 147.164062 186.585938 147.339844 C 186.761719 147.515625 186.898438 147.71875 186.992188 147.949219 C 187.089844 148.175781 187.136719 148.414062 187.136719 148.664062 C 187.136719 148.914062 187.089844 149.152344 186.992188 149.378906 C 186.898438 149.609375 186.761719 149.8125 186.585938 149.988281 C 186.410156 150.164062 186.207031 150.296875 185.976562 150.394531 C 185.75 150.488281 185.507812 150.535156 185.261719 150.535156 Z M 185.261719 158.019531 C 185.011719 158.019531 184.773438 157.972656 184.542969 157.878906 C 184.3125 157.785156 184.109375 157.648438 183.933594 157.472656 C 183.757812 157.296875 183.625 157.09375 183.527344 156.867188 C 183.433594 156.636719 183.386719 156.398438 183.386719 156.148438 C 183.386719 155.902344 183.433594 155.664062 183.527344 155.433594 C 183.625 155.203125 183.757812 155 183.933594 154.828125 C 184.109375 154.652344 184.3125 154.515625 184.542969 154.421875 C 184.773438 154.324219 185.011719 154.277344 185.261719 154.277344 C 185.507812 154.277344 185.75 154.324219 185.976562 154.421875 C 186.207031 154.515625 186.410156 154.652344 186.585938 154.828125 C 186.761719 155 186.898438 155.203125 186.992188 155.433594 C 187.089844 155.664062 187.136719 155.902344 187.136719 156.148438 C 187.136719 156.398438 187.089844 156.636719 186.992188 156.867188 C 186.898438 157.09375 186.761719 157.296875 186.585938 157.472656 C 186.410156 157.648438 186.207031 157.785156 185.976562 157.878906 C 185.75 157.972656 185.507812 158.019531 185.261719 158.019531 Z M 185.261719 165.507812 C 185.011719 165.507812 184.773438 165.457031 184.542969 165.363281 C 184.3125 165.269531 184.109375 165.132812 183.933594 164.957031 C 183.757812 164.78125 183.625 164.582031 183.527344 164.351562 C 183.433594 164.121094 183.386719 163.882812 183.386719 163.636719 C 183.386719 163.386719 183.433594 163.148438 183.527344 162.917969 C 183.625 162.691406 183.757812 162.488281 183.933594 162.3125 C 184.109375 162.136719 184.3125 162 184.542969 161.90625 C 184.773438 161.8125 185.011719 161.761719 185.261719 161.761719 C 185.507812 161.761719 185.75 161.8125 185.976562 161.90625 C 186.207031 162 186.410156 162.136719 186.585938 162.3125 C 186.761719 162.488281 186.898438 162.691406 186.992188 162.917969 C 187.089844 163.148438 187.136719 163.386719 187.136719 163.636719 C 187.136719 163.882812 187.089844 164.121094 186.992188 164.351562 C 186.898438 164.582031 186.761719 164.78125 186.585938 164.957031 C 186.410156 165.132812 186.207031 165.269531 185.976562 165.363281 C 185.75 165.457031 185.507812 165.507812 185.261719 165.507812 Z M 185.261719 172.992188 C 185.011719 172.992188 184.773438 172.945312 184.542969 172.847656 C 184.3125 172.753906 184.109375 172.617188 183.933594 172.445312 C 183.757812 172.269531 183.625 172.066406 183.527344 171.835938 C 183.433594 171.605469 183.386719 171.367188 183.386719 171.121094 C 183.386719 170.871094 183.433594 170.632812 183.527344 170.402344 C 183.625 170.175781 183.757812 169.972656 183.933594 169.796875 C 184.109375 169.621094 184.3125 169.488281 184.542969 169.390625 C 184.773438 169.296875 185.011719 169.25 185.261719 169.25 C 185.507812 169.25 185.75 169.296875 185.976562 169.390625 C 186.207031 169.488281 186.410156 169.621094 186.585938 169.796875 C 186.761719 169.972656 186.898438 170.175781 186.992188 170.402344 C 187.089844 170.632812 187.136719 170.871094 187.136719 171.121094 C 187.136719 171.367188 187.089844 171.605469 186.992188 171.835938 C 186.898438 172.066406 186.761719 172.269531 186.585938 172.445312 C 186.410156 172.617188 186.207031 172.753906 185.976562 172.847656 C 185.75 172.945312 185.507812 172.992188 185.261719 172.992188 Z M 185.261719 180.476562 C 185.011719 180.476562 184.773438 180.429688 184.542969 180.335938 C 184.3125 180.238281 184.109375 180.105469 183.933594 179.929688 C 183.757812 179.753906 183.625 179.550781 183.527344 179.320312 C 183.433594 179.09375 183.386719 178.855469 183.386719 178.605469 C 183.386719 178.359375 183.433594 178.117188 183.527344 177.890625 C 183.625 177.660156 183.757812 177.457031 183.933594 177.28125 C 184.109375 177.105469 184.3125 176.972656 184.542969 176.875 C 184.773438 176.78125 185.011719 176.734375 185.261719 176.734375 C 185.507812 176.734375 185.75 176.78125 185.976562 176.875 C 186.207031 176.972656 186.410156 177.105469 186.585938 177.28125 C 186.761719 177.457031 186.898438 177.660156 186.992188 177.890625 C 187.089844 178.117188 187.136719 178.359375 187.136719 178.605469 C 187.136719 178.855469 187.089844 179.09375 186.992188 179.320312 C 186.898438 179.550781 186.761719 179.753906 186.585938 179.929688 C 186.410156 180.105469 186.207031 180.238281 185.976562 180.335938 C 185.75 180.429688 185.507812 180.476562 185.261719 180.476562 Z M 185.261719 187.960938 C 185.011719 187.960938 184.773438 187.914062 184.542969 187.820312 C 184.3125 187.726562 184.109375 187.589844 183.933594 187.414062 C 183.757812 187.238281 183.625 187.035156 183.527344 186.808594 C 183.433594 186.578125 183.386719 186.339844 183.386719 186.089844 C 183.386719 185.84375 183.433594 185.605469 183.527344 185.375 C 183.625 185.144531 183.757812 184.941406 183.933594 184.769531 C 184.109375 184.59375 184.3125 184.457031 184.542969 184.363281 C 184.773438 184.265625 185.011719 184.21875 185.261719 184.21875 C 185.507812 184.21875 185.75 184.265625 185.976562 184.363281 C 186.207031 184.457031 186.410156 184.59375 186.585938 184.769531 C 186.761719 184.941406 186.898438 185.144531 186.992188 185.375 C 187.089844 185.605469 187.136719 185.84375 187.136719 186.089844 C 187.136719 186.339844 187.089844 186.578125 186.992188 186.808594 C 186.898438 187.035156 186.761719 187.238281 186.585938 187.414062 C 186.410156 187.589844 186.207031 187.726562 185.976562 187.820312 C 185.75 187.914062 185.507812 187.960938 185.261719 187.960938 Z M 185.261719 195.449219 C 185.011719 195.449219 184.773438 195.398438 184.542969 195.304688 C 184.3125 195.210938 184.109375 195.074219 183.933594 194.898438 C 183.757812 194.722656 183.625 194.523438 183.527344 194.292969 C 183.433594 194.0625 183.386719 193.824219 183.386719 193.578125 C 183.386719 193.328125 183.433594 193.089844 183.527344 192.859375 C 183.625 192.632812 183.757812 192.429688 183.933594 192.253906 C 184.109375 192.078125 184.3125 191.941406 184.542969 191.847656 C 184.773438 191.753906 185.011719 191.703125 185.261719 191.703125 C 185.507812 191.703125 185.75 191.753906 185.976562 191.847656 C 186.207031 191.941406 186.410156 192.078125 186.585938 192.253906 C 186.761719 192.429688 186.898438 192.632812 186.992188 192.859375 C 187.089844 193.089844 187.136719 193.328125 187.136719 193.578125 C 187.136719 193.824219 187.089844 194.0625 186.992188 194.292969 C 186.898438 194.523438 186.761719 194.722656 186.585938 194.898438 C 186.410156 195.074219 186.207031 195.210938 185.976562 195.304688 C 185.75 195.398438 185.507812 195.449219 185.261719 195.449219 Z M 185.261719 202.933594 C 185.011719 202.933594 184.773438 202.886719 184.542969 202.789062 C 184.3125 202.695312 184.109375 202.558594 183.933594 202.386719 C 183.757812 202.210938 183.625 202.007812 183.527344 201.777344 C 183.433594 201.546875 183.386719 201.308594 183.386719 201.0625 C 183.386719 200.8125 183.433594 200.574219 183.527344 200.34375 C 183.625 200.117188 183.757812 199.914062 183.933594 199.738281 C 184.109375 199.5625 184.3125 199.429688 184.542969 199.332031 C 184.773438 199.238281 185.011719 199.191406 185.261719 199.191406 C 185.507812 199.191406 185.75 199.238281 185.976562 199.332031 C 186.207031 199.429688 186.410156 199.5625 186.585938 199.738281 C 186.761719 199.914062 186.898438 200.117188 186.992188 200.34375 C 187.089844 200.574219 187.136719 200.8125 187.136719 201.0625 C 187.136719 201.308594 187.089844 201.546875 186.992188 201.777344 C 186.898438 202.007812 186.761719 202.210938 186.585938 202.386719 C 186.410156 202.558594 186.207031 202.695312 185.976562 202.789062 C 185.75 202.886719 185.507812 202.933594 185.261719 202.933594 Z M 185.261719 210.417969 C 185.011719 210.417969 184.773438 210.371094 184.542969 210.277344 C 184.3125 210.179688 184.109375 210.046875 183.933594 209.871094 C 183.757812 209.695312 183.625 209.492188 183.527344 209.261719 C 183.433594 209.035156 183.386719 208.796875 183.386719 208.546875 C 183.386719 208.300781 183.433594 208.058594 183.527344 207.832031 C 183.625 207.601562 183.757812 207.398438 183.933594 207.222656 C 184.109375 207.046875 184.3125 206.914062 184.542969 206.816406 C 184.773438 206.722656 185.011719 206.675781 185.261719 206.675781 C 185.507812 206.675781 185.75 206.722656 185.976562 206.816406 C 186.207031 206.914062 186.410156 207.046875 186.585938 207.222656 C 186.761719 207.398438 186.898438 207.601562 186.992188 207.832031 C 187.089844 208.058594 187.136719 208.300781 187.136719 208.546875 C 187.136719 208.796875 187.089844 209.035156 186.992188 209.261719 C 186.898438 209.492188 186.761719 209.695312 186.585938 209.871094 C 186.410156 210.046875 186.207031 210.179688 185.976562 210.277344 C 185.75 210.371094 185.507812 210.417969 185.261719 210.417969 Z M 185.261719 217.902344 C 185.011719 217.902344 184.773438 217.855469 184.542969 217.761719 C 184.3125 217.667969 184.109375 217.53125 183.933594 217.355469 C 183.757812 217.179688 183.625 216.976562 183.527344 216.75 C 183.433594 216.519531 183.386719 216.28125 183.386719 216.03125 C 183.386719 215.785156 183.433594 215.546875 183.527344 215.316406 C 183.625 215.085938 183.757812 214.886719 183.933594 214.710938 C 184.109375 214.535156 184.3125 214.398438 184.542969 214.304688 C 184.773438 214.207031 185.011719 214.160156 185.261719 214.160156 C 185.507812 214.160156 185.75 214.207031 185.976562 214.304688 C 186.207031 214.398438 186.410156 214.535156 186.585938 214.710938 C 186.761719 214.886719 186.898438 215.085938 186.992188 215.316406 C 187.089844 215.546875 187.136719 215.785156 187.136719 216.03125 C 187.136719 216.28125 187.089844 216.519531 186.992188 216.75 C 186.898438 216.976562 186.761719 217.179688 186.585938 217.355469 C 186.410156 217.53125 186.207031 217.667969 185.976562 217.761719 C 185.75 217.855469 185.507812 217.902344 185.261719 217.902344 Z M 185.261719 225.390625 C 185.011719 225.390625 184.773438 225.339844 184.542969 225.246094 C 184.3125 225.152344 184.109375 225.015625 183.933594 224.839844 C 183.757812 224.664062 183.625 224.464844 183.527344 224.234375 C 183.433594 224.003906 183.386719 223.765625 183.386719 223.519531 C 183.386719 223.269531 183.433594 223.03125 183.527344 222.800781 C 183.625 222.574219 183.757812 222.371094 183.933594 222.195312 C 184.109375 222.019531 184.3125 221.882812 184.542969 221.789062 C 184.773438 221.695312 185.011719 221.648438 185.261719 221.648438 C 185.507812 221.648438 185.75 221.695312 185.976562 221.789062 C 186.207031 221.882812 186.410156 222.019531 186.585938 222.195312 C 186.761719 222.371094 186.898438 222.574219 186.992188 222.800781 C 187.089844 223.03125 187.136719 223.269531 187.136719 223.519531 C 187.136719 223.765625 187.089844 224.003906 186.992188 224.234375 C 186.898438 224.464844 186.761719 224.664062 186.585938 224.839844 C 186.410156 225.015625 186.207031 225.152344 185.976562 225.246094 C 185.75 225.339844 185.507812 225.390625 185.261719 225.390625 Z M 185.261719 232.875 C 185.011719 232.875 184.773438 232.828125 184.542969 232.730469 C 184.3125 232.636719 184.109375 232.503906 183.933594 232.328125 C 183.757812 232.152344 183.625 231.949219 183.527344 231.71875 C 183.433594 231.488281 183.386719 231.25 183.386719 231.003906 C 183.386719 230.753906 183.433594 230.515625 183.527344 230.289062 C 183.625 230.058594 183.757812 229.855469 183.933594 229.679688 C 184.109375 229.503906 184.3125 229.371094 184.542969 229.273438 C 184.773438 229.179688 185.011719 229.132812 185.261719 229.132812 C 185.507812 229.132812 185.75 229.179688 185.976562 229.273438 C 186.207031 229.371094 186.410156 229.503906 186.585938 229.679688 C 186.761719 229.855469 186.898438 230.058594 186.992188 230.289062 C 187.089844 230.515625 187.136719 230.753906 187.136719 231.003906 C 187.136719 231.25 187.089844 231.488281 186.992188 231.71875 C 186.898438 231.949219 186.761719 232.152344 186.585938 232.328125 C 186.410156 232.503906 186.207031 232.636719 185.976562 232.730469 C 185.75 232.828125 185.507812 232.875 185.261719 232.875 Z M 185.261719 240.359375 C 185.011719 240.359375 184.773438 240.3125 184.542969 240.21875 C 184.3125 240.121094 184.109375 239.988281 183.933594 239.8125 C 183.757812 239.636719 183.625 239.433594 183.527344 239.203125 C 183.433594 238.976562 183.386719 238.738281 183.386719 238.488281 C 183.386719 238.242188 183.433594 238 183.527344 237.773438 C 183.625 237.542969 183.757812 237.339844 183.933594 237.164062 C 184.109375 236.988281 184.3125 236.855469 184.542969 236.761719 C 184.773438 236.664062 185.011719 236.617188 185.261719 236.617188 C 185.507812 236.617188 185.75 236.664062 185.976562 236.761719 C 186.207031 236.855469 186.410156 236.988281 186.585938 237.164062 C 186.761719 237.339844 186.898438 237.542969 186.992188 237.773438 C 187.089844 238 187.136719 238.242188 187.136719 238.488281 C 187.136719 238.738281 187.089844 238.976562 186.992188 239.203125 C 186.898438 239.433594 186.761719 239.636719 186.585938 239.8125 C 186.410156 239.988281 186.207031 240.121094 185.976562 240.21875 C 185.75 240.3125 185.507812 240.359375 185.261719 240.359375 Z M 185.261719 247.84375 C 185.011719 247.84375 184.773438 247.796875 184.542969 247.703125 C 184.3125 247.609375 184.109375 247.472656 183.933594 247.296875 C 183.757812 247.121094 183.625 246.917969 183.527344 246.691406 C 183.433594 246.460938 183.386719 246.222656 183.386719 245.972656 C 183.386719 245.726562 183.433594 245.488281 183.527344 245.257812 C 183.625 245.027344 183.757812 244.828125 183.933594 244.652344 C 184.109375 244.476562 184.3125 244.339844 184.542969 244.246094 C 184.773438 244.148438 185.011719 244.101562 185.261719 244.101562 C 185.507812 244.101562 185.75 244.148438 185.976562 244.246094 C 186.207031 244.339844 186.410156 244.476562 186.585938 244.652344 C 186.761719 244.828125 186.898438 245.027344 186.992188 245.257812 C 187.089844 245.488281 187.136719 245.726562 187.136719 245.972656 C 187.136719 246.222656 187.089844 246.460938 186.992188 246.691406 C 186.898438 246.917969 186.761719 247.121094 186.585938 247.296875 C 186.410156 247.472656 186.207031 247.609375 185.976562 247.703125 C 185.75 247.796875 185.507812 247.84375 185.261719 247.84375 Z M 185.261719 255.332031 C 185.011719 255.332031 184.773438 255.285156 184.542969 255.1875 C 184.3125 255.09375 184.109375 254.957031 183.933594 254.78125 C 183.757812 254.605469 183.625 254.40625 183.527344 254.175781 C 183.433594 253.945312 183.386719 253.707031 183.386719 253.460938 C 183.386719 253.210938 183.433594 252.972656 183.527344 252.742188 C 183.625 252.515625 183.757812 252.3125 183.933594 252.136719 C 184.109375 251.960938 184.3125 251.824219 184.542969 251.730469 C 184.773438 251.636719 185.011719 251.589844 185.261719 251.589844 C 185.507812 251.589844 185.75 251.636719 185.976562 251.730469 C 186.207031 251.824219 186.410156 251.960938 186.585938 252.136719 C 186.761719 252.3125 186.898438 252.515625 186.992188 252.742188 C 187.089844 252.972656 187.136719 253.210938 187.136719 253.460938 C 187.136719 253.707031 187.089844 253.945312 186.992188 254.175781 C 186.898438 254.40625 186.761719 254.605469 186.585938 254.78125 C 186.410156 254.957031 186.207031 255.09375 185.976562 255.1875 C 185.75 255.285156 185.507812 255.332031 185.261719 255.332031 Z M 185.261719 262.816406 C 185.011719 262.816406 184.773438 262.769531 184.542969 262.671875 C 184.3125 262.578125 184.109375 262.445312 183.933594 262.269531 C 183.757812 262.09375 183.625 261.890625 183.527344 261.660156 C 183.433594 261.433594 183.386719 261.191406 183.386719 260.945312 C 183.386719 260.695312 183.433594 260.457031 183.527344 260.230469 C 183.625 260 183.757812 259.796875 183.933594 259.621094 C 184.109375 259.445312 184.3125 259.3125 184.542969 259.214844 C 184.773438 259.121094 185.011719 259.074219 185.261719 259.074219 C 185.507812 259.074219 185.75 259.121094 185.976562 259.214844 C 186.207031 259.3125 186.410156 259.445312 186.585938 259.621094 C 186.761719 259.796875 186.898438 260 186.992188 260.230469 C 187.089844 260.457031 187.136719 260.695312 187.136719 260.945312 C 187.136719 261.191406 187.089844 261.433594 186.992188 261.660156 C 186.898438 261.890625 186.761719 262.09375 186.585938 262.269531 C 186.410156 262.445312 186.207031 262.578125 185.976562 262.671875 C 185.75 262.769531 185.507812 262.816406 185.261719 262.816406 Z M 185.261719 270.300781 C 185.011719 270.300781 184.773438 270.253906 184.542969 270.160156 C 184.3125 270.0625 184.109375 269.929688 183.933594 269.753906 C 183.757812 269.578125 183.625 269.375 183.527344 269.144531 C 183.433594 268.917969 183.386719 268.679688 183.386719 268.429688 C 183.386719 268.183594 183.433594 267.941406 183.527344 267.714844 C 183.625 267.484375 183.757812 267.28125 183.933594 267.105469 C 184.109375 266.929688 184.3125 266.796875 184.542969 266.703125 C 184.773438 266.605469 185.011719 266.558594 185.261719 266.558594 C 185.507812 266.558594 185.75 266.605469 185.976562 266.703125 C 186.207031 266.796875 186.410156 266.929688 186.585938 267.105469 C 186.761719 267.28125 186.898438 267.484375 186.992188 267.714844 C 187.089844 267.941406 187.136719 268.183594 187.136719 268.429688 C 187.136719 268.679688 187.089844 268.917969 186.992188 269.144531 C 186.898438 269.375 186.761719 269.578125 186.585938 269.753906 C 186.410156 269.929688 186.207031 270.0625 185.976562 270.160156 C 185.75 270.253906 185.507812 270.300781 185.261719 270.300781 Z M 185.261719 277.785156 C 185.011719 277.785156 184.773438 277.738281 184.542969 277.644531 C 184.3125 277.550781 184.109375 277.414062 183.933594 277.238281 C 183.757812 277.0625 183.625 276.859375 183.527344 276.632812 C 183.433594 276.402344 183.386719 276.164062 183.386719 275.914062 C 183.386719 275.667969 183.433594 275.429688 183.527344 275.199219 C 183.625 274.96875 183.757812 274.769531 183.933594 274.59375 C 184.109375 274.417969 184.3125 274.28125 184.542969 274.1875 C 184.773438 274.089844 185.011719 274.042969 185.261719 274.042969 C 185.507812 274.042969 185.75 274.089844 185.976562 274.1875 C 186.207031 274.28125 186.410156 274.417969 186.585938 274.59375 C 186.761719 274.769531 186.898438 274.96875 186.992188 275.199219 C 187.089844 275.429688 187.136719 275.667969 187.136719 275.914062 C 187.136719 276.164062 187.089844 276.402344 186.992188 276.632812 C 186.898438 276.859375 186.761719 277.0625 186.585938 277.238281 C 186.410156 277.414062 186.207031 277.550781 185.976562 277.644531 C 185.75 277.738281 185.507812 277.785156 185.261719 277.785156 Z M 185.261719 285.273438 C 185.011719 285.273438 184.773438 285.226562 184.542969 285.128906 C 184.3125 285.035156 184.109375 284.898438 183.933594 284.722656 C 183.757812 284.546875 183.625 284.347656 183.527344 284.117188 C 183.433594 283.886719 183.386719 283.648438 183.386719 283.402344 C 183.386719 283.152344 183.433594 282.914062 183.527344 282.683594 C 183.625 282.457031 183.757812 282.253906 183.933594 282.078125 C 184.109375 281.902344 184.3125 281.765625 184.542969 281.671875 C 184.773438 281.578125 185.011719 281.53125 185.261719 281.53125 C 185.507812 281.53125 185.75 281.578125 185.976562 281.671875 C 186.207031 281.765625 186.410156 281.902344 186.585938 282.078125 C 186.761719 282.253906 186.898438 282.457031 186.992188 282.683594 C 187.089844 282.914062 187.136719 283.152344 187.136719 283.402344 C 187.136719 283.648438 187.089844 283.886719 186.992188 284.117188 C 186.898438 284.347656 186.761719 284.546875 186.585938 284.722656 C 186.410156 284.898438 186.207031 285.035156 185.976562 285.128906 C 185.75 285.226562 185.507812 285.273438 185.261719 285.273438 Z M 185.261719 285.273438 " fill-opacity="1" fill-rule="nonzero"/></svg>