<?xml version="1.0" standalone="no"?>
<!DOCTYPE svg PUBLIC "-//W3C//DTD SVG 20010904//EN"
 "http://www.w3.org/TR/2001/REC-SVG-20010904/DTD/svg10.dtd">
<svg version="1.0" xmlns="http://www.w3.org/2000/svg"
 width="700.000000pt" height="700.000000pt" viewBox="0 0 700.000000 700.000000"
 preserveAspectRatio="xMidYMid meet">
<metadata>
Created by potrace 1.14, written by Peter Selinger 2001-2017
</metadata>
<g transform="translate(0.000000,700.000000) scale(0.100000,-0.100000)"
fill="#000000" stroke="none">
<path d="M3385 5302 c-26 -3 -291 -56 -335 -67 -26 -7 -194 -44 -220 -49 -14
-2 -47 -10 -75 -16 -27 -6 -59 -14 -70 -16 -11 -2 -29 -6 -40 -8 -65 -14 -172
-38 -185 -41 -29 -7 -255 -56 -275 -61 -11 -2 -31 -6 -45 -9 -14 -3 -34 -7
-45 -9 -11 -3 -51 -12 -90 -20 -38 -9 -113 -26 -165 -38 -99 -22 -160 -53
-195 -97 -11 -14 -31 -37 -44 -50 -24 -25 -24 -26 -26 -255 -1 -127 2 -251 7
-275 5 -27 4 -49 -1 -54 -14 -14 6 -47 28 -47 9 0 28 -12 42 -26 46 -50 103
-73 275 -113 93 -21 162 -41 154 -44 -8 -3 -82 -20 -165 -38 -162 -35 -207
-52 -256 -100 -28 -28 -43 -35 -72 -38 -4 -1 -7 -20 -7 -43 1 -24 -1 -158 -2
-298 l-3 -254 25 -27 c14 -15 39 -43 57 -62 45 -51 91 -71 233 -102 69 -15
131 -31 138 -34 7 -4 -47 -20 -120 -35 -153 -32 -201 -50 -245 -94 -18 -19
-38 -30 -46 -26 -8 3 -22 -2 -31 -12 -15 -14 -15 -19 -2 -38 10 -17 11 -27 3
-42 -16 -27 -17 -425 -1 -485 18 -70 74 -148 127 -175 25 -13 142 -46 207 -58
14 -2 57 -12 95 -21 39 -9 77 -18 85 -20 8 -2 159 -35 335 -74 296 -66 447
-101 600 -136 33 -8 71 -16 85 -19 14 -2 63 -13 110 -24 47 -11 107 -23 134
-27 57 -7 66 -11 66 -29 0 -25 39 -26 57 -1 16 20 30 24 108 29 50 3 169 24
265 46 96 23 207 48 245 56 39 9 77 17 85 19 8 2 139 31 290 65 151 34 282 64
290 65 243 53 473 110 505 126 52 27 99 77 126 137 20 43 22 65 23 257 1 116
-2 227 -7 248 -6 25 -6 46 1 61 13 29 2 46 -29 49 -13 1 -37 15 -54 31 -16 15
-42 34 -56 41 -25 13 -142 45 -224 61 -22 4 -43 8 -47 9 -5 2 -12 3 -18 4 -5
0 -10 5 -10 10 0 7 43 18 139 37 119 23 195 57 231 103 13 18 35 44 49 59 l26
27 -3 255 c-1 140 -3 274 -2 296 0 40 -18 63 -40 49 -5 -3 -17 7 -28 23 -34
47 -107 78 -267 112 -82 18 -156 35 -163 39 -8 5 19 14 65 24 255 52 301 68
354 123 18 19 40 34 49 34 25 0 40 20 30 41 -6 10 -6 35 -2 61 5 24 8 147 7
273 l-2 230 -54 59 c-30 32 -71 67 -91 77 -39 20 -179 55 -378 95 -14 3 -65
14 -115 25 -49 12 -101 23 -115 25 -13 3 -60 14 -105 24 -45 10 -92 21 -105
24 -14 2 -59 12 -100 21 -41 10 -93 21 -115 25 -22 5 -121 27 -220 49 -99 22
-191 42 -205 45 -14 3 -59 12 -100 21 -69 16 -261 25 -335 17z"/>
<path d="M1591 5090 c-21 -12 -9 -55 16 -58 23 -3 47 26 35 44 -10 16 -37 23
-51 14z"/>
<path d="M5367 5082 c-19 -21 -5 -52 23 -52 21 0 42 30 32 46 -13 20 -40 23
-55 6z"/>
<path d="M1593 4952 c-30 -21 -17 -62 19 -62 20 0 40 31 30 46 -10 15 -37 23
-49 16z"/>
<path d="M5378 4953 c-24 -6 -31 -33 -12 -54 18 -20 47 -12 57 15 7 18 -23 44
-45 39z"/>
<path d="M1593 4112 c-32 -22 -17 -62 23 -62 22 0 37 29 25 47 -9 14 -36 22
-48 15z"/>
<path d="M5365 4103 c-21 -20 -2 -55 28 -51 31 4 37 53 7 61 -11 3 -27 -1 -35
-10z"/>
<path d="M1591 3970 c-21 -12 -9 -55 16 -58 23 -3 47 26 35 44 -10 16 -37 23
-51 14z"/>
<path d="M5365 3963 c-11 -11 -12 -19 -5 -34 12 -22 43 -25 59 -5 26 31 -25
69 -54 39z"/>
<path d="M1599 3133 c-21 -5 -31 -37 -16 -52 15 -15 54 -14 60 2 11 32 -11 57
-44 50z"/>
<path d="M5367 3122 c-19 -21 -6 -52 22 -52 30 0 45 26 29 47 -18 24 -33 26
-51 5z"/>
<path d="M1586 2984 c-20 -19 -5 -54 24 -54 30 0 43 34 21 54 -22 20 -26 20
-45 0z"/>
<path d="M5379 2993 c-37 -10 -26 -63 13 -63 27 0 42 35 22 54 -8 9 -16 15
-17 15 -1 -1 -9 -3 -18 -6z"/>
</g>
</svg>
